<?xml version="1.0" encoding="utf-8"?>
<!-- Generator: Adobe Illustrator 24.0.0, SVG Export Plug-In . SVG Version: 6.00 Build 0)  -->
<svg version="1.1" id="图层_1" xmlns="http://www.w3.org/2000/svg" xmlns:xlink="http://www.w3.org/1999/xlink" x="0px" y="0px"
	 viewBox="0 0 908.8 442.7" style="enable-background:new 0 0 908.8 442.7;" xml:space="preserve">
<style type="text/css">
	.st0{fill:#5DC1A7;}
	.st1{fill:none;}
</style>
<path class="st0" d="M100.7,274.5c0,0-65.8-88.2,71.6-147.1s330.9-91.8,330.9-91.8s-266.7,3.3-382.9,58.9S-31.9,202.5,100.7,274.5
	L100.7,274.5z"/>
<path class="st0" d="M557.4,8.8l-22.1,66.5h59.1l24.9-64.7L557.4,8.8z"/>
<path class="st0" d="M30.9,398.3l-18.4,34.8l867.1,1.1l15.6-37.3L30.9,398.3z"/>
<path class="st0" d="M256.6,214.9c3.3-10.1,9.5-17.2,18.6-14.4c5.2,1.6,9.5,5.8,8.4,17.3c-0.9,9.1-6,20.9-11.3,37.3
	c-0.2,0.8-2.2,6.6-5.8,17.4c-12.4,37.3-20.1,60.4-23,69.5l0,0c-1.2,3.7-3.6,9.5-7.3,17.4c-4.3,9.5-10.6,14.2-18.7,14.2
	c-4.5,0-8.7-2.9-12.6-8.7l-47-120.1c0,0-35.1,115.4-38.5,123.6c-2.7,6.5-10.1,9.9-14.8,9.9c-4.8,0-9.8-2.3-11.6-5.6
	c-1.6-3-1.7-6.5-0.3-10.7c1-2.9,2.6-7.3,4.9-13.3c2.4-6,4-10.4,5-13.3c1.4-4.4,3.6-10.8,6.6-19.5c3.1-8.7,5.3-15.1,6.7-19.4
	c1.5-4.6,6.4-20.9,6.4-20.9s5-16.3,6.5-20.9c4.3-13.7,7.2-25.5,11.6-39.5c1.4-4.4,3.2-8.3,7.6-11.7c4.4-3.5,8.8-5.3,13.1-5.3
	c4.8,0.1,8.5,4.8,11.4,14.2l48,121.1"/>
<path class="st0" d="M297.7,357.9c-1.5,4.2-4.1,7.7-7.8,10.5c-3.7,2.7-7.7,4.1-11.8,4.1c-4.2,0-7.2-1.4-8.9-4.1
	c-1.7-2.8-1.9-6.3-0.4-10.6c8.9-29.8,22.7-61.6,32.6-89.3c1.5-4.3,4-7.8,7.7-10.5c3.7-2.8,7.7-4.1,11.8-4.1c4.1,0,7.1,1.4,8.9,4.2
	c1.7,2.8,1.9,6.2,0.4,10.5C317,300.7,308.4,326.9,297.7,357.9L297.7,357.9z M330.2,236.8c-4.4,0-7.8-1.6-9.9-4.7
	c-2.2-3.1-2.5-7-0.9-11.6c1.6-4.5,4.6-8.4,9-11.5s8.7-4.7,13.1-4.7c4.5,0,7.8,1.6,9.9,4.7c2.2,3.1,2.5,7,0.9,11.6
	c-1.6,4.5-4.5,8.4-8.9,11.5C339.1,235.3,334.7,236.8,330.2,236.8L330.2,236.8z"/>
<path class="st0" d="M349.2,369.5c-16.5-11-17.8-26.5-17.4-37.2c0.7-19,8.1-35.8,22-52.1c16.7-19.6,39.2-24,53.9-24
	c7.3,0,15.1,2.1,23.3,6.2c10,5.1,13.9,10.9,11.6,17.5c-1.2,3.6-3.5,6.8-6.9,9.6c-3.6,3-6.3,3-9,0.1c-17.9-19.6-45.9-7.8-59.3,11.8
	c-5.1,7.5-21,34.2-7,44.8c13.5,10.3,33.2,1.5,49.1-4.8c3.5-1.4,7.8,2.4,9.5,5.3s3,8.2,1,12.3c-2,5.7-11.4,8.6-25.5,13.7
	C380.7,377.6,361.4,377.6,349.2,369.5L349.2,369.5z"/>
<path class="st0" d="M481.2,374.6c-16.7,0-28.9-4.3-36.5-12.6c-8.5-9.3-9.8-22.3-4-39.1c6.5-18.6,16.6-34.3,30.4-47.1
	c15.3-14.1,31.6-21.3,49.2-21.3c13.1-0.3,23.2,5.7,29,13.9c3.9,5.6,5.6,14.5,3.3,21.3c-2.8,8.1-8,14.2-17.6,17.8
	c-22.9,9.3-69.4,27.1-69.4,27.1c-2.9,3.9-2.2,12.6,2.4,14.8c10.2,4.7,36.8-1.6,48.5-7.5c7-3.6,8.6-5.6,13.2-7.2
	c3.5-1.2,9.2,1.5,11.4,5.5c2.3,4.2,1.4,10.5-2.9,14.8c-3.1,2.6-13.7,9.3-23.5,13.1C503.2,372.5,492.1,374.6,481.2,374.6L481.2,374.6
	z M491.5,286.2c-6.2,4.5-17.5,16.6-20.3,23.9c0,0,38.9-16.1,59.4-23.5c0.1-5.2-6.7-12.6-19.8-9.5C503.7,278.7,497.3,282,491.5,286.2
	L491.5,286.2z"/>
<path class="st0" d="M558.9,363.7l44.3-163.2c-0.7-16,22.9-18.9,22.7,1c35.9-7.2,54.3,11.2,56.1,26.9c2.4,21.3-13.2,40.1-31,49.6
	c19.8,10.1,30.7,27.4,26.6,50.2c-2.2,15.1-13.6,35.1-34.3,43.2c-16,6.3-35.8,6-63.7-2C574.5,384.5,552.5,378.5,558.9,363.7
	L558.9,363.7z M606.9,272.7c32.2-3.8,53.4-22.6,53-39c-0.3-13.8-15.6-15.9-33.4-12.7c-2.1,0.4-5.8,1.9-6.5,4.4L606.9,272.7z
	 M655.7,326.7c2.9-12.6-4.3-23.6-14.3-30c-10.6-6.8-26.1-6.4-40.3-2.8l-13.9,51.2c-1.8,6.6,17.2,10.2,20.6,10.5
	C636.3,357.8,651.9,343.4,655.7,326.7L655.7,326.7z"/>
<path class="st0" d="M711,368.5c-24.2-14.7-29.3-45.3-12.1-79c17.4-31.4,44.3-35,64.5-25c27,14.9,30.4,50.7,10.3,83
	C762.2,365.8,735.2,381.9,711,368.5z M715.3,300.5c-10.3,20-10.3,39.4,3.3,49.4c13.6,10.1,32.7,0.2,42.9-21.4c9.4-20,6.4-39-7.8-46
	C742.2,276.8,724.5,282.9,715.3,300.5z"/>
<path class="st0" d="M888.2,271.6c-31.9,56.9-58.1,104.3-90,161.2c0,0-5,7.1-13.2,3.6c-10.6-5.8-5.7-14.4-5.7-14.4l40.8-72.8
	c-8.8-25.9-28.3-82.1-28.3-82.1s-4.5-11,6.3-14.6c10.8-3.6,13.5,8.8,13.5,8.8l22.2,64.6c12.9-23,23.4-43.2,36.4-66.3
	c0,0,5.9-10.7,16.5-4.7C895.7,260.5,888.2,271.6,888.2,271.6z"/>
<path class="st1" d="M8659.5,239.5"/>
<path class="st1" d="M-7723.5,239.5"/>
</svg>
